<svg enable-background="new 0 0 48 18.3" viewBox="0 0 48 18.3" xmlns="http://www.w3.org/2000/svg"><path d="m42.4 7.3c-2.5-.7-5-1-5.1-2.2 0-1 1.2-1.2 1.9-1.2.6 0 1.1.1 1.6.4s.7.8.6 1.4h5.1c-.1-4.3-3.5-5.7-7.3-5.7-3.1 0-6.2 1.3-6.9 4.3-1.5-2.8-4.5-4.5-7.7-4.3h-23.8v4.7h5.1v13.6h5.6v-13.6h5.2c-.7 1.4-1 2.9-1 4.5 0 5.3 3.6 9.2 8.9 9.2 2.9.1 5.7-1.3 7.4-3.8 1.4 3.3 5.6 3.8 7.2 3.8 3.9 0 8.1-1.5 8.1-6 0-3.3-2.5-4.5-4.9-5.1zm-17.8 6.7c-1.4 0-3.5-.9-3.5-4.8s2.1-4.8 3.5-4.8 3.5.9 3.5 4.8-2.1 4.8-3.5 4.8zm15.1.5c-1 0-2.2-.2-2.6-1.3-.1-.4-.2-.8-.2-1.2h-3.8c.3-.9.4-1.9.4-2.9 0-.1 0-.2 0-.3 1.4 1 3 1.6 4.6 2 3 .9 3.8 1.1 3.8 2 0 1.4-1.4 1.7-2.2 1.7z" fill="#fff"/></svg>